<svg xmlns="http://www.w3.org/2000/svg" xmlns:xlink="http://www.w3.org/1999/xlink" style="display:none">
  
  <!-- Youtube -->
  <symbol id="youtube" viewBox="0 0 30 30">
    <path fill="#00BED6" d="m17.404 14.75-3.368-1.572c-.294-.137-.536.016-.536.342v2.96c0 .326.242.48.536.343l3.367-1.572c.296-.138.296-.363.002-.501ZM15 .6C7.047.6.6 7.047.6 15S7.047 29.4 15 29.4 29.4 22.953 29.4 15 22.953.6 15 .6Zm0 20.25c-7.371 0-7.5-.664-7.5-5.85 0-5.185.129-5.85 7.5-5.85s7.5.665 7.5 5.85c0 5.186-.129 5.85-7.5 5.85Z"/>
  </symbol>

</svg>
